<svg xmlns="http://www.w3.org/2000/svg" viewBox="0 0 140.46 137.93"><defs><style>.cls-1,.cls-5,.cls-7,.cls-9{fill:#fff;stroke-width:2.5px;}.cls-1{stroke:#e02d47;}.cls-1,.cls-3,.cls-5,.cls-7,.cls-9{stroke-miterlimit:10;}.cls-2{fill:#e02d47;}.cls-3{fill:none;stroke:#555;stroke-width:2px;}.cls-4{fill:#555;}.cls-5{stroke:#f97319;}.cls-6{fill:#f97319;}.cls-7{stroke:#0066a5;}.cls-8{fill:#0066a5;}.cls-9{stroke:#3ca505;}.cls-10{fill:#3ca505;}</style></defs><title>4Asset 34</title><g id="Layer_2" data-name="Layer 2"><g id="Layer_5" data-name="Layer 5"><circle class="cls-1" cx="27.04" cy="26.6" r="18.7"/><path class="cls-2" d="M15.62,30.67l-2.18-9.15c0-.12,0-.18.13-.18h1.52a.15.15,0,0,1,.16.14L16.42,27c0,.07.06.07.07,0l1.13-5.49c0-.09.08-.15.16-.15h1.49a.16.16,0,0,1,.17.14L20.67,27c0,.05.07.07.08,0l1.13-5.49c0-.09.07-.15.16-.15h1.45c.1,0,.16.06.14.18l-2,9.15a.17.17,0,0,1-.17.14H20c-.08,0-.13,0-.16-.14l-1.25-5.85c0-.07-.06-.07-.08,0l-1.16,5.84a.17.17,0,0,1-.16.15H15.79A.16.16,0,0,1,15.62,30.67Z"/><path class="cls-2" d="M30,26.21v4.43a.15.15,0,0,1-.15.17H28.46a.15.15,0,0,1-.15-.17v-4a1.07,1.07,0,0,0-1-1.21c-.6,0-1,.48-1,1.21v4a.15.15,0,0,1-.15.17H24.7a.15.15,0,0,1-.14-.17V21.5a.15.15,0,0,1,.14-.16h1.44a.15.15,0,0,1,.15.16v3c0,.06,0,.08.06,0a1.66,1.66,0,0,1,1.5-.78A2.19,2.19,0,0,1,30,26.21Z"/><path class="cls-2" d="M36.56,26.06v4.58a.15.15,0,0,1-.15.17H35a.16.16,0,0,1-.15-.17V30.2c0-.06,0-.08-.07,0a1.86,1.86,0,0,1-1.66.74,1.91,1.91,0,0,1-2.14-2c0-1.37.9-2.19,2.56-2.19h1.25s.06,0,.06-.07v-.3a.87.87,0,0,0-1-.94c-.52,0-.86.21-1,.56,0,.1-.07.15-.16.14l-1.49-.22c-.08,0-.15-.05-.13-.12a2.46,2.46,0,0,1,2.7-2A2.48,2.48,0,0,1,36.56,26.06Zm-1.74,2.33V27.9s0-.07-.06-.07h-.88c-.73,0-1.18.31-1.18.88a.76.76,0,0,0,.86.78A1.16,1.16,0,0,0,34.82,28.39Z"/><path class="cls-2" d="M41.12,25.39H39.94a.05.05,0,0,0-.06.06v2.87c0,.59.21.88.7.88H41a.15.15,0,0,1,.15.16v1.28a.16.16,0,0,1-.15.18l-.73,0c-1.26,0-2-.33-2-1.77V25.45a.05.05,0,0,0-.06-.06h-.7a.15.15,0,0,1-.15-.17V24a.15.15,0,0,1,.15-.16h.7s.06,0,.06-.07V22.18a.16.16,0,0,1,.15-.16h1.38a.16.16,0,0,1,.15.16v1.61s0,.07.06.07h1.18a.16.16,0,0,1,.15.16v1.2A.16.16,0,0,1,41.12,25.39Z"/><path class="cls-3" d="M86.76,6.24A58.14,58.14,0,0,0,68.07,2.63,55.21,55.21,0,0,0,43.94,8.11"/><polygon class="cls-4" points="95.21 9.81 85.27 0 86.09 6.06 81.24 9.77 95.21 9.81"/><circle class="cls-5" cx="113.19" cy="26.6" r="18.7"/><path class="cls-6" d="M103.65,30.67l-2.18-9.15c0-.12,0-.18.13-.18h1.52a.15.15,0,0,1,.16.14l1.17,5.5c0,.07.06.07.07,0l1.14-5.49c0-.09.07-.15.15-.15h1.49a.17.17,0,0,1,.18.14l1.23,5.5c0,.05.06.07.07,0l1.13-5.49c0-.09.07-.15.16-.15h1.45c.1,0,.16.06.14.18l-2,9.15a.16.16,0,0,1-.17.14H108c-.08,0-.13,0-.16-.14l-1.25-5.85c0-.07-.06-.07-.07,0l-1.17,5.84a.16.16,0,0,1-.16.15h-1.37A.17.17,0,0,1,103.65,30.67Z"/><path class="cls-6" d="M118.07,26.21v4.43a.15.15,0,0,1-.14.17h-1.44a.15.15,0,0,1-.15-.17v-4a1.07,1.07,0,0,0-1-1.21c-.6,0-1,.48-1,1.21v4a.15.15,0,0,1-.15.17h-1.43a.15.15,0,0,1-.15-.17V21.5a.15.15,0,0,1,.15-.16h1.43a.15.15,0,0,1,.15.16v3c0,.06,0,.08.06,0a1.66,1.66,0,0,1,1.5-.78A2.18,2.18,0,0,1,118.07,26.21Z"/><path class="cls-6" d="M118.92,33.33V32.09a.15.15,0,0,1,.15-.16c1,0,1.37-.18,1.57-1.08a.11.11,0,0,0,0-.08l-2-6.74c0-.12,0-.19.13-.19h1.53a.17.17,0,0,1,.18.14l1,4.38c0,.05.06.05.07,0l1-4.38a.16.16,0,0,1,.17-.14h1.5c.1,0,.15.07.11.19l-2.13,7c-.56,1.81-1,2.44-3.16,2.44H119C119,33.5,118.92,33.43,118.92,33.33Z"/><circle class="cls-7" cx="27.04" cy="110.54" r="18.7"/><path class="cls-8" d="M14.25,115.29l-2.17-9.15c0-.12,0-.18.12-.18h1.53c.08,0,.13.05.16.14l1.16,5.5c0,.07.07.07.08,0l1.13-5.49c0-.09.07-.15.16-.15h1.49a.18.18,0,0,1,.17.14l1.23,5.5c0,.06.06.07.07,0l1.13-5.49c0-.09.08-.15.16-.15h1.46a.13.13,0,0,1,.13.18l-2,9.15a.16.16,0,0,1-.17.14H18.61a.15.15,0,0,1-.16-.14l-1.26-5.85c0-.07-.06-.07-.07,0L16,115.28a.16.16,0,0,1-.16.15H14.43A.17.17,0,0,1,14.25,115.29Z"/><path class="cls-8" d="M28.68,110.83v4.44a.15.15,0,0,1-.15.16H27.09a.15.15,0,0,1-.15-.16v-4c0-.71-.4-1.21-1-1.21s-1,.48-1,1.21v4a.16.16,0,0,1-.15.16H23.34a.15.15,0,0,1-.15-.16v-9.14a.15.15,0,0,1,.15-.17h1.44a.16.16,0,0,1,.15.17v3s0,.08.06,0a1.66,1.66,0,0,1,1.5-.79A2.19,2.19,0,0,1,28.68,110.83Z"/><path class="cls-8" d="M35.52,112.39a.16.16,0,0,1-.16.16h-3.8a0,0,0,0,0,0,.07,2.25,2.25,0,0,0,.13.54,1.26,1.26,0,0,0,1.3.75,1.46,1.46,0,0,0,1.25-.7c.06-.09.12-.11.19,0l.89,1a.16.16,0,0,1,0,.23,3,3,0,0,1-2.5,1.17,2.79,2.79,0,0,1-2.79-2,4.8,4.8,0,0,1-.26-1.65,4.37,4.37,0,0,1,.19-1.44,2.72,2.72,0,0,1,2.67-2.09c1.68,0,2.67,1.19,2.88,2.88A7.16,7.16,0,0,1,35.52,112.39Zm-3.93-1.59a4.25,4.25,0,0,0-.09.44.07.07,0,0,0,.06.07h2.13a.05.05,0,0,0,.05-.07c0-.15,0-.27-.06-.38a1.05,1.05,0,0,0-1.07-.85A1,1,0,0,0,31.59,110.8Z"/><path class="cls-8" d="M42.08,110.83v4.44a.15.15,0,0,1-.15.16H40.49a.15.15,0,0,1-.15-.16v-4c0-.71-.4-1.21-1-1.21s-1,.48-1,1.21v4a.15.15,0,0,1-.15.16H36.74a.15.15,0,0,1-.15-.16v-6.63a.15.15,0,0,1,.15-.16h1.44a.15.15,0,0,1,.15.16v.48s0,.08.06,0a1.66,1.66,0,0,1,1.5-.79A2.19,2.19,0,0,1,42.08,110.83Z"/><circle class="cls-9" cx="113.19" cy="110.54" r="18.7"/><path class="cls-10" d="M107.49,106h1.44a.15.15,0,0,1,.15.17v9.14a.15.15,0,0,1-.15.16h-1.44a.15.15,0,0,1-.14-.16v-3.74s0-.06-.07-.06h-2.71a.05.05,0,0,0-.06.06v3.74a.16.16,0,0,1-.15.16h-1.44a.15.15,0,0,1-.15-.16v-9.14a.15.15,0,0,1,.15-.17h1.44a.16.16,0,0,1,.15.17v3.63s0,.07.06.07h2.71a.07.07,0,0,0,.07-.07v-3.63A.15.15,0,0,1,107.49,106Z"/><path class="cls-10" d="M110.39,113.32a5.43,5.43,0,0,1-.17-1.38,5.66,5.66,0,0,1,.17-1.43,2.79,2.79,0,0,1,2.79-2.14,2.75,2.75,0,0,1,2.74,2.12,5.3,5.3,0,0,1,.19,1.42,5.35,5.35,0,0,1-.17,1.37,2.84,2.84,0,0,1-5.55,0Zm3.88-.43a4.54,4.54,0,0,0,.1-1,4.29,4.29,0,0,0-.1-1,1.15,1.15,0,0,0-1.11-1,1.13,1.13,0,0,0-1.09,1,3.37,3.37,0,0,0-.1,1,4.43,4.43,0,0,0,.08,1,1.17,1.17,0,0,0,1.12,1A1.16,1.16,0,0,0,114.27,112.89Z"/><path class="cls-10" d="M118.29,115.29l-1.77-6.63c0-.11,0-.19.12-.19h1.49a.17.17,0,0,1,.17.13l.88,4.08c0,.06.07.06.08,0l.92-4.08a.17.17,0,0,1,.17-.13h1.29a.17.17,0,0,1,.18.13l1,4.1s.06,0,.07,0l1-4.1a.17.17,0,0,1,.17-.13l1.48,0c.1,0,.15.07.12.18l-1.79,6.62c0,.08-.08.14-.16.14h-1.49a.17.17,0,0,1-.17-.14l-1-3.62s-.06,0-.07,0l-.84,3.62a.16.16,0,0,1-.17.14h-1.49A.17.17,0,0,1,118.29,115.29Z"/><path class="cls-3" d="M134.22,85.38a58.14,58.14,0,0,0,3.61-18.69,55.16,55.16,0,0,0-5.48-24.13"/><polygon class="cls-4" points="130.65 93.83 140.46 83.88 134.4 84.71 130.69 79.86 130.65 93.83"/><path class="cls-3" d="M52.39,131.69a58.14,58.14,0,0,0,18.69,3.61,55.16,55.16,0,0,0,24.13-5.48"/><polygon class="cls-4" points="43.94 128.12 53.89 137.93 53.06 131.88 57.91 128.16 43.94 128.12"/><path class="cls-3" d="M6.24,51A58.14,58.14,0,0,0,2.63,69.7,55.16,55.16,0,0,0,8.11,93.83"/><polygon class="cls-4" points="9.81 42.56 0 52.51 6.05 51.68 9.77 56.53 9.81 42.56"/><path class="cls-4" d="M64.88,81.19V78c0-10.68,13.67-11.08,13.67-19.72,0-4.08-3.06-6.76-7.7-6.76-4.87,0-8,2.91-8,7v1.65c0,.63-.32.86-1,.86l-7.23-.31a1,1,0,0,1-.94-1V58.49c0-9.12,7.07-15.32,17.37-15.32,10.13,0,16.73,5.89,16.73,14.77C87.82,71.06,74,71.22,74,78.52v2.67a.91.91,0,0,1-.94,1H65.82A.91.91,0,0,1,64.88,81.19ZM63.62,93.45A5.3,5.3,0,0,1,69.2,88a5.24,5.24,0,0,1,5.5,5.5,5.54,5.54,0,1,1-11.08,0Z"/></g></g></svg>