<svg xmlns="http://www.w3.org/2000/svg" viewBox="0 0 73 32.24"><defs><style>.cls-1{fill:#00aeef;}.cls-2{fill:#fff;}</style></defs><title>4Asset 37</title><g id="Layer_2" data-name="Layer 2"><g id="Layer_3" data-name="Layer 3"><path class="cls-1" d="M15.52,18.66q4.55-2.51,4.54-8.75c0-3-.86-5.37-2.6-7S13.28.43,10.11.43H6.33V5.71H10q3.69,0,3.69,4.72a5.48,5.48,0,0,1-1,3.37,3.33,3.33,0,0,1-2.85,1.26H6.33v5.28H9.48L14.2,31.8H21v-.3Z"/><rect class="cls-2" y="0.43" width="6.33" height="31.37"/><path class="cls-1" d="M39.35,21.35q-.14,3.2-1.08,4.41c-.63.81-1.78,1.22-3.45,1.22a3.82,3.82,0,0,1-3.58-1.75q-1.05-1.74-1-6.42V16H23.83v2.74q0,6.48,2.84,10t8.15,3.5q5.07,0,7.84-2.76c1.86-1.84,2.86-4.55,3-8.13Z"/><path class="cls-2" d="M45.73,11.1H39.37c-.06-2.21-.4-3.74-1-4.58s-1.77-1.26-3.43-1.26A3.83,3.83,0,0,0,31.31,7c-.7,1.18-1.08,3.13-1.12,5.85V16H23.83V13.47q0-6.47,2.93-10A10.07,10.07,0,0,1,34.91,0c3.42,0,6,1,7.79,2.87S45.48,7.52,45.73,11.1Z"/><path class="cls-2" d="M63.14.43H60.23C59.62,10.58,62,15.1,63.16,20.11H60.23v5.27h4.33l1.68,6.42H73Z"/><polygon class="cls-1" points="60.23 8.92 57.3 20.11 60.23 20.11 60.23 25.38 55.92 25.38 54.24 31.8 47.53 31.8 57.34 0.43 60.23 0.43 60.23 8.92"/></g></g></svg>