<svg xmlns="http://www.w3.org/2000/svg" viewBox="0 0 215.99 111.88"><defs><style>.cls-1{fill:#f68a33;}.cls-2{fill:#fff;}.cls-3{fill:#005272;}</style></defs><title>4Asset 36</title><g id="Layer_2" data-name="Layer 2"><g id="Layer_5" data-name="Layer 5"><path class="cls-1" d="M16.46,21.88l-4.3-9a.16.16,0,0,1,.1-.22,5.84,5.84,0,0,0,4.08-5.85c0-4-2.69-6.67-6.77-6.67h-9A.36.36,0,0,0,.14.56V21.94a.37.37,0,0,0,.38.38h3.7a.37.37,0,0,0,.38-.38V13.3a.16.16,0,0,1,.16-.16H7.7a.26.26,0,0,1,.19.13l4,8.76a.43.43,0,0,0,.44.29h3.89C16.46,22.32,16.59,22.16,16.46,21.88ZM8.9,9.73H4.76a.15.15,0,0,1-.16-.16V4.16A.16.16,0,0,1,4.76,4H8.9a2.81,2.81,0,0,1,3,2.88A2.78,2.78,0,0,1,8.9,9.73Z"/><path class="cls-2" d="M28.7,14.58A4.65,4.65,0,0,0,24,11.26a4.75,4.75,0,0,0-4.81,3.35,8.11,8.11,0,0,0-.29,2.24A7.73,7.73,0,0,0,19.19,19,4.73,4.73,0,0,0,24,22.49,4.72,4.72,0,0,0,28.75,19,7.64,7.64,0,0,0,29,16.81,7.24,7.24,0,0,0,28.7,14.58Zm-2.83,3.75A1.94,1.94,0,0,1,24,19.92a2,2,0,0,1-1.93-1.59,6.31,6.31,0,0,1-.15-1.48,5.39,5.39,0,0,1,.17-1.5A1.91,1.91,0,0,1,24,13.82a1.94,1.94,0,0,1,1.91,1.53,6.26,6.26,0,0,1,.17,1.5A6.62,6.62,0,0,1,25.87,18.33Z"/><path class="cls-2" d="M40.51,14.58a4.67,4.67,0,0,0-4.71-3.32A4.75,4.75,0,0,0,31,14.61a8.11,8.11,0,0,0-.29,2.24A7.73,7.73,0,0,0,31,19a4.73,4.73,0,0,0,4.79,3.48A4.72,4.72,0,0,0,40.55,19a7.64,7.64,0,0,0,.29-2.14A7.55,7.55,0,0,0,40.51,14.58Zm-2.84,3.75a1.94,1.94,0,0,1-1.89,1.59,2,2,0,0,1-1.93-1.59,6.31,6.31,0,0,1-.15-1.48,5.39,5.39,0,0,1,.17-1.5,1.91,1.91,0,0,1,1.89-1.53,1.94,1.94,0,0,1,1.91,1.53,6.26,6.26,0,0,1,.17,1.5A6.62,6.62,0,0,1,37.67,18.33Z"/><path class="cls-2" d="M48.47,13.82h-2a.1.1,0,0,0-.11.11v4.49c0,.93.36,1.38,1.21,1.38h.7a.24.24,0,0,1,.25.25v2a.26.26,0,0,1-.25.28c-.45,0-.87,0-1.27,0-2.16,0-3.5-.51-3.52-2.77V13.93a.1.1,0,0,0-.11-.11h-1.2a.24.24,0,0,1-.26-.25V11.68a.24.24,0,0,1,.26-.25h1.2a.1.1,0,0,0,.11-.11V8.8a.24.24,0,0,1,.25-.25h2.38a.24.24,0,0,1,.25.25v2.52a.1.1,0,0,0,.11.11h2a.24.24,0,0,1,.26.25v1.89A.24.24,0,0,1,48.47,13.82Z"/><path class="cls-1" d="M57.91,14.86V7.6C57.91,3,61.14,0,66.08,0s8.13,2.89,8.13,7.26c0,.19-.12.31-.37.34l-3.68.22a.3.3,0,0,1-.38-.34,3.72,3.72,0,0,0-7.44,0v7.57a3.72,3.72,0,0,0,7.44,0c0-.22.13-.35.38-.35l3.68.16a.33.33,0,0,1,.37.31c0,4.4-3.26,7.32-8.13,7.32S57.91,19.45,57.91,14.86Z"/><path class="cls-2" d="M82.05,11.26c-2.59,0-4.47,1.33-4.66,3.13,0,.11.08.17.23.19l2.56.34a.24.24,0,0,0,.28-.21c.17-.55.76-.89,1.65-.89,1.14,0,1.7.57,1.7,1.49v.46a.11.11,0,0,1-.11.11H81.54c-2.86,0-4.41,1.29-4.41,3.43s1.61,3.18,3.69,3.18a3.35,3.35,0,0,0,2.86-1.17c.06-.08.13,0,.13,0v.7a.24.24,0,0,0,.25.26h2.48a.24.24,0,0,0,.25-.26V14.88C86.79,12.83,84.84,11.26,82.05,11.26Zm1.76,7.27a2,2,0,0,1-2.19,1.73c-.89,0-1.48-.46-1.48-1.23s.78-1.37,2-1.37H83.7a.1.1,0,0,1,.11.1Z"/><path class="cls-2" d="M95.5,11.43H98a.24.24,0,0,1,.25.25V22.06a.24.24,0,0,1-.25.26H95.5a.24.24,0,0,1-.25-.26v-.72c0-.08-.07-.1-.13,0a3.07,3.07,0,0,1-2.63,1.15,3.46,3.46,0,0,1-3.68-3.71V11.68a.24.24,0,0,1,.25-.25h2.46a.24.24,0,0,1,.25.25V18a1.75,1.75,0,0,0,3.48.34V11.68A.24.24,0,0,1,95.5,11.43Z"/><path class="cls-2" d="M100.08,19.31V19.1a.24.24,0,0,1,.25-.26h2.35a.25.25,0,0,1,.26.26v0c0,.61.76,1.12,1.82,1.12s1.61-.42,1.61-1c0-.85-1.63-.83-3.2-1.47-1.44-.48-3-1.2-3-3.09,0-2.12,1.8-3.41,4.45-3.41s4.52,1.42,4.52,3.43a.25.25,0,0,1-.26.26h-2.27a.25.25,0,0,1-.25-.26c0-.61-.66-1.1-1.74-1.1-.91,0-1.59.34-1.59,1,0,.85,1.47.91,3,1.4s3.25,1.23,3.25,3.18c0,2.14-1.85,3.33-4.58,3.33S100.08,21.15,100.08,19.31Z"/><path class="cls-2" d="M120.71,15.75a4.76,4.76,0,0,0-5-4.51,4.63,4.63,0,0,0-4.59,3.28,6.23,6.23,0,0,0-.32,2.25,6.93,6.93,0,0,0,.44,2.58,4.8,4.8,0,0,0,4.81,3.14,5.34,5.34,0,0,0,4.3-1.82.23.23,0,0,0,0-.36l-1.52-1.51c-.13-.13-.24-.11-.34,0A2.62,2.62,0,0,1,116.37,20a2.22,2.22,0,0,1-2.25-1.19,3.52,3.52,0,0,1-.23-.85c0-.06,0-.1.08-.1h6.55a.27.27,0,0,0,.28-.26A9.61,9.61,0,0,0,120.71,15.75Zm-3.07.11H114a.1.1,0,0,1-.1-.11,4.27,4.27,0,0,1,.15-.68,1.7,1.7,0,0,1,1.76-1.25,1.78,1.78,0,0,1,1.84,1.34c0,.17.06.36.1.59C117.75,15.81,117.7,15.86,117.64,15.86Z"/><path class="cls-1" d="M149.36,21.88,142.53.49a.41.41,0,0,0-.42-.31h-5a.4.4,0,0,0-.41.31l-6.83,21.39a.3.3,0,0,0,.31.44h4a.41.41,0,0,0,.41-.32l.92-3.1c0-.06.06-.12.16-.12h7.78c.09,0,.12.06.15.12l1,3.1a.42.42,0,0,0,.41.32h4A.31.31,0,0,0,149.36,21.88Zm-7-6.55h-5.57c-.09,0-.16-.07-.12-.19l2.78-9.4c0-.12.16-.15.19,0l2.85,9.4A.14.14,0,0,1,142.4,15.33Z"/><path class="cls-2" d="M161.23,15.11v7a.25.25,0,0,1-.26.26h-2.48a.25.25,0,0,1-.25-.26V15.73a1.75,1.75,0,1,0-3.48,0v6.33a.24.24,0,0,1-.25.26H152a.24.24,0,0,1-.25-.26V11.68a.24.24,0,0,1,.25-.25h2.48a.24.24,0,0,1,.25.25v.74c0,.09.07.13.11.07a2.93,2.93,0,0,1,2.59-1.23A3.57,3.57,0,0,1,161.23,15.11Z"/><path class="cls-2" d="M167.71,11.26c-2.58,0-4.47,1.33-4.66,3.13,0,.11.08.17.23.19l2.57.34c.14,0,.23-.06.27-.21.17-.55.76-.89,1.65-.89,1.15,0,1.7.57,1.7,1.49v.46a.1.1,0,0,1-.11.11H167.2c-2.86,0-4.41,1.29-4.41,3.43s1.61,3.18,3.69,3.18a3.34,3.34,0,0,0,2.86-1.17c.06-.08.13,0,.13,0v.7a.24.24,0,0,0,.25.26h2.48a.25.25,0,0,0,.26-.26V14.88C172.46,12.83,170.51,11.26,167.71,11.26Zm1.76,7.27a2,2,0,0,1-2.18,1.73c-.89,0-1.49-.46-1.49-1.23s.79-1.37,2-1.37h1.52a.1.1,0,0,1,.11.1Z"/><rect class="cls-2" x="174.55" y="7.49" width="2.99" height="14.83" rx="0.25"/><path class="cls-2" d="M179.51,26.28v-2a.24.24,0,0,1,.25-.25c1.68,0,2.38-.28,2.72-1.7,0,0,0-.06,0-.13L179,11.7c-.06-.19,0-.29.21-.29h2.65a.28.28,0,0,1,.3.21l1.78,6.86c0,.09.1.09.13,0l1.78-6.86a.26.26,0,0,1,.29-.21h2.59c.17,0,.25.1.19.29l-3.67,11c-1,2.84-1.76,3.81-5.44,3.81h-.15C179.57,26.53,179.51,26.43,179.51,26.28Z"/><path class="cls-2" d="M189.28,19.31V19.1a.24.24,0,0,1,.25-.26h2.35a.25.25,0,0,1,.26.26v0c0,.61.76,1.12,1.82,1.12s1.61-.42,1.61-1c0-.85-1.63-.83-3.2-1.47-1.44-.48-3-1.2-3-3.09,0-2.12,1.81-3.41,4.45-3.41s4.52,1.42,4.52,3.43a.25.25,0,0,1-.26.26h-2.26a.25.25,0,0,1-.26-.26c0-.61-.66-1.1-1.74-1.1-.91,0-1.59.34-1.59,1,0,.85,1.47.91,3.06,1.4s3.24,1.23,3.24,3.18c0,2.14-1.85,3.33-4.58,3.33S189.28,21.15,189.28,19.31Z"/><path class="cls-2" d="M200.21,8.53a1.68,1.68,0,1,1,3.35,0,1.68,1.68,0,0,1-3.35,0Z"/><rect class="cls-2" x="200.36" y="11.41" width="2.99" height="10.91" rx="0.25"/><path class="cls-2" d="M205.32,19.31V19.1a.24.24,0,0,1,.25-.26h2.35a.25.25,0,0,1,.26.26v0c0,.61.76,1.12,1.82,1.12s1.61-.42,1.61-1c0-.85-1.63-.83-3.2-1.47-1.44-.48-3-1.2-3-3.09,0-2.12,1.8-3.41,4.45-3.41s4.51,1.42,4.51,3.43a.24.24,0,0,1-.25.26h-2.27a.24.24,0,0,1-.25-.26c0-.61-.66-1.1-1.74-1.1-.91,0-1.59.34-1.59,1,0,.85,1.46.91,3,1.4s3.24,1.23,3.24,3.18c0,2.14-1.84,3.33-4.57,3.33C207.14,22.47,205.32,21.15,205.32,19.31Z"/><path class="cls-3" d="M51.77,53.82V49.56c0-2.44,1.73-4,4.33-4s4.32,1.55,4.32,3.88a.21.21,0,0,1-.21.21l-1.59.09c-.14,0-.2-.06-.2-.19a2.33,2.33,0,0,0-4.65,0v4.4a2.33,2.33,0,0,0,4.65,0c0-.12.06-.19.2-.19l1.59.07c.12,0,.21.07.21.17,0,2.36-1.73,3.92-4.32,3.92S51.77,56.25,51.77,53.82Z"/><path class="cls-3" d="M62.38,55.27a7,7,0,0,1-.29-2,6.48,6.48,0,0,1,.28-2,3.69,3.69,0,0,1,3.74-2.56,3.64,3.64,0,0,1,3.63,2.54,6.08,6.08,0,0,1,.31,2,6.35,6.35,0,0,1-.3,2,3.65,3.65,0,0,1-3.66,2.63A3.7,3.7,0,0,1,62.38,55.27Zm5.47-.5A5,5,0,0,0,68,53.32a4.58,4.58,0,0,0-.18-1.45,1.76,1.76,0,0,0-1.79-1.36,1.81,1.81,0,0,0-1.78,1.36,5.71,5.71,0,0,0-.17,1.45,5.89,5.89,0,0,0,.17,1.45,1.84,1.84,0,0,0,3.57,0Z"/><path class="cls-3" d="M77,49a.22.22,0,0,1,.1.26l-.29,1.55c0,.14-.11.18-.24.12a2.15,2.15,0,0,0-1-.07A1.7,1.7,0,0,0,74,52.65v4.88a.21.21,0,0,1-.21.21H72.15a.21.21,0,0,1-.21-.21v-8.4a.21.21,0,0,1,.21-.21h1.59a.21.21,0,0,1,.21.21v.77c0,.09,0,.11.08,0a2.31,2.31,0,0,1,2-1.12A2,2,0,0,1,77,49Z"/><path class="cls-3" d="M83.51,49a.22.22,0,0,1,.1.26l-.29,1.55c0,.14-.11.18-.25.12a2.1,2.1,0,0,0-.94-.07,1.7,1.7,0,0,0-1.7,1.75v4.88a.2.2,0,0,1-.2.21H78.64a.21.21,0,0,1-.21-.21v-8.4a.21.21,0,0,1,.21-.21h1.59a.2.2,0,0,1,.2.21v.77c0,.09.06.11.09,0a2.31,2.31,0,0,1,2-1.12A2,2,0,0,1,83.51,49Z"/><path class="cls-3" d="M92.24,53.84A.19.19,0,0,1,92,54h-5.4a.09.09,0,0,0-.09.09,2.72,2.72,0,0,0,.16.78,1.93,1.93,0,0,0,2,1.26,2.16,2.16,0,0,0,1.86-1c.09-.12.19-.14.3-.05L92,56a.19.19,0,0,1,0,.28,4.11,4.11,0,0,1-3.47,1.58,3.65,3.65,0,0,1-3.59-2.29,5.82,5.82,0,0,1-.4-2.33,5.73,5.73,0,0,1,.21-1.88,3.56,3.56,0,0,1,3.61-2.61c2.43,0,3.57,1.38,3.83,3.56A8.14,8.14,0,0,1,92.24,53.84ZM86.7,51.72a2.38,2.38,0,0,0-.14.75c0,.06,0,.09.07.09h3.5a.08.08,0,0,0,.09-.09,3.19,3.19,0,0,0-.1-.65,1.69,1.69,0,0,0-1.76-1.31A1.6,1.6,0,0,0,86.7,51.72Z"/><path class="cls-3" d="M94.12,55.36a7.68,7.68,0,0,1,0-4.11,3.61,3.61,0,0,1,3.64-2.47,3.71,3.71,0,0,1,3.68,2.37,3.28,3.28,0,0,1,.12.55.21.21,0,0,1-.19.24l-1.56.22c-.12,0-.2,0-.24-.17a.71.71,0,0,0,0-.14c0-.08,0-.15-.07-.24a1.74,1.74,0,0,0-1.73-1.1A1.67,1.67,0,0,0,96,51.77a5.16,5.16,0,0,0-.18,1.53A6,6,0,0,0,96,54.84a1.83,1.83,0,0,0,3.48.07.18.18,0,0,0,0-.09.06.06,0,0,0,0,0,.19.19,0,0,1,.24-.17l1.55.24a.2.2,0,0,1,.19.24,2,2,0,0,1-.08.4,4,4,0,0,1-7.32-.12Z"/><path class="cls-3" d="M107.72,50.54H106a.09.09,0,0,0-.09.09v4.16c0,.88.38,1.24,1.19,1.24h.52a.21.21,0,0,1,.21.21v1.29a.22.22,0,0,1-.21.23h-.9c-1.65,0-2.71-.39-2.72-2.22V50.63a.09.09,0,0,0-.09-.09h-1a.2.2,0,0,1-.21-.21v-1.2a.2.2,0,0,1,.21-.21h1a.09.09,0,0,0,.09-.09v-2a.19.19,0,0,1,.2-.2h1.5a.2.2,0,0,1,.21.2v2a.09.09,0,0,0,.09.09h1.76a.2.2,0,0,1,.2.21v1.2A.2.2,0,0,1,107.72,50.54Z"/><path class="cls-2" d="M120.64,53.84a.18.18,0,0,1-.2.2H115a.08.08,0,0,0-.08.09,2.76,2.76,0,0,0,.15.78,1.94,1.94,0,0,0,2,1.26,2.18,2.18,0,0,0,1.87-1,.18.18,0,0,1,.29-.05l1.07.88a.19.19,0,0,1,.05.28,4.08,4.08,0,0,1-3.47,1.58,3.66,3.66,0,0,1-3.59-2.29,6,6,0,0,1-.39-2.33,5.75,5.75,0,0,1,.2-1.88,3.58,3.58,0,0,1,3.61-2.61c2.43,0,3.57,1.38,3.83,3.56A8.14,8.14,0,0,1,120.64,53.84Zm-5.54-2.12a2.71,2.71,0,0,0-.14.75c0,.06,0,.09.07.09h3.51s.08,0,.08-.09a2.61,2.61,0,0,0-.1-.65,1.69,1.69,0,0,0-1.76-1.31A1.61,1.61,0,0,0,115.1,51.72Z"/><path class="cls-2" d="M127.56,49a.23.23,0,0,1,.11.26l-.3,1.55c0,.14-.1.18-.24.12a2.14,2.14,0,0,0-.95-.07,1.7,1.7,0,0,0-1.69,1.75v4.88a.21.21,0,0,1-.21.21H122.7a.21.21,0,0,1-.21-.21v-8.4a.21.21,0,0,1,.21-.21h1.58a.21.21,0,0,1,.21.21v.77c0,.09.05.11.09,0a2.29,2.29,0,0,1,2-1.12A1.94,1.94,0,0,1,127.56,49Z"/><path class="cls-2" d="M134.05,49a.22.22,0,0,1,.1.26l-.29,1.55q0,.21-.24.12a2.14,2.14,0,0,0-1-.07A1.7,1.7,0,0,0,131,52.65v4.88a.21.21,0,0,1-.21.21h-1.59a.2.2,0,0,1-.2-.21v-8.4a.2.2,0,0,1,.2-.21h1.59a.21.21,0,0,1,.21.21v.77c0,.09.05.11.09,0a2.28,2.28,0,0,1,2-1.12A2,2,0,0,1,134.05,49Z"/><path class="cls-2" d="M135.33,55.27a6.68,6.68,0,0,1-.3-2,6.81,6.81,0,0,1,.28-2,3.7,3.7,0,0,1,3.74-2.56,3.63,3.63,0,0,1,3.63,2.54,5.82,5.82,0,0,1,.31,2,6.35,6.35,0,0,1-.29,2,3.9,3.9,0,0,1-7.37,0Zm5.47-.5a5.35,5.35,0,0,0,.17-1.45,4.92,4.92,0,0,0-.17-1.45,1.85,1.85,0,0,0-3.57,0,5.24,5.24,0,0,0-.18,1.45,5.4,5.4,0,0,0,.18,1.45,1.84,1.84,0,0,0,3.57,0Z"/><path class="cls-2" d="M150,49a.22.22,0,0,1,.1.26l-.29,1.55q0,.21-.24.12a2.14,2.14,0,0,0-.95-.07,1.7,1.7,0,0,0-1.69,1.75v4.88a.21.21,0,0,1-.21.21h-1.59a.2.2,0,0,1-.2-.21v-8.4a.2.2,0,0,1,.2-.21h1.59a.21.21,0,0,1,.21.21v.77c0,.09.05.11.09,0a2.28,2.28,0,0,1,2-1.12A1.94,1.94,0,0,1,150,49Z"/><path class="cls-2" d="M150.93,55.39v-.15a.2.2,0,0,1,.2-.21h1.52a.21.21,0,0,1,.21.21v0c0,.57.69,1.07,1.67,1.07s1.56-.43,1.56-1c0-.73-1-.85-2.16-1.23-1.38-.41-2.92-1-2.92-2.65s1.42-2.64,3.45-2.64S158,49.9,158,51.44a.21.21,0,0,1-.21.21h-1.47a.2.2,0,0,1-.2-.21c0-.57-.61-1-1.64-1-.88,0-1.52.32-1.52,1s1,.88,2.14,1.2c1.41.42,3,1,3,2.68s-1.42,2.62-3.54,2.62S150.93,56.79,150.93,55.39Z"/><path class="cls-2" d="M168.91,48.92h1.59a.2.2,0,0,1,.2.21V60.79a.2.2,0,0,1-.2.21h-1.59a.21.21,0,0,1-.21-.21V57.05c0-.07,0-.09-.1,0a2.47,2.47,0,0,1-1.95.87,3.29,3.29,0,0,1-3.35-2.42,6.61,6.61,0,0,1-.29-2.11,6.89,6.89,0,0,1,.31-2.15,3.3,3.3,0,0,1,3.29-2.42,2.52,2.52,0,0,1,2,.9c.05.07.1,0,.1,0v-.51A.21.21,0,0,1,168.91,48.92Zm-.23,4.4a4.25,4.25,0,0,0-.39-2,1.5,1.5,0,0,0-1.37-.83,1.58,1.58,0,0,0-1.46.85,4.19,4.19,0,0,0-.42,2,3.84,3.84,0,0,0,.52,2.11,1.57,1.57,0,0,0,1.38.72,1.46,1.46,0,0,0,1.31-.76A3.94,3.94,0,0,0,168.68,53.32Z"/><path class="cls-2" d="M178.37,48.92h1.57a.2.2,0,0,1,.2.21v8.4a.2.2,0,0,1-.2.21h-1.57a.21.21,0,0,1-.21-.21V57c0-.07,0-.11-.1,0a2.5,2.5,0,0,1-2.13.92,2.84,2.84,0,0,1-3.09-2.92V49.13a.21.21,0,0,1,.21-.21h1.59a.21.21,0,0,1,.21.21v5.24a1.57,1.57,0,0,0,1.6,1.78,1.64,1.64,0,0,0,1.71-1.78V49.13A.21.21,0,0,1,178.37,48.92Z"/><path class="cls-2" d="M182.2,46.49a1.23,1.23,0,1,1,2.45,0,1.23,1.23,0,0,1-2.45,0Zm.19,11V49.11a.2.2,0,0,1,.2-.21h1.59a.21.21,0,0,1,.21.21v8.42a.21.21,0,0,1-.21.21h-1.59A.2.2,0,0,1,182.39,57.53Z"/><path class="cls-2" d="M186.72,55.36a6.21,6.21,0,0,1-.28-2.07,6,6,0,0,1,.28-2,3.61,3.61,0,0,1,3.64-2.47A3.71,3.71,0,0,1,194,51.15a4.74,4.74,0,0,1,.12.55.21.21,0,0,1-.19.24l-1.56.22c-.12,0-.2,0-.24-.17a.36.36,0,0,0,0-.14.8.8,0,0,0-.07-.24,1.72,1.72,0,0,0-1.72-1.1,1.69,1.69,0,0,0-1.73,1.26,5.6,5.6,0,0,0-.17,1.53,6,6,0,0,0,.16,1.54,1.83,1.83,0,0,0,3.48.07.18.18,0,0,0,0-.09.06.06,0,0,0,0,0,.19.19,0,0,1,.24-.17l1.55.24a.2.2,0,0,1,.19.24,3.1,3.1,0,0,1-.08.4,4,4,0,0,1-7.32-.12Z"/><path class="cls-2" d="M195.85,57.53V45.87a.19.19,0,0,1,.2-.21h1.59a.2.2,0,0,1,.21.21v6.22c0,.07.05.11.1,0l2.8-3.09a.36.36,0,0,1,.26-.12h1.83c.17,0,.22.12.12.26l-2.2,2.62a.11.11,0,0,0,0,.12l2.59,5.58c.07.15,0,.24-.16.24h-1.67a.23.23,0,0,1-.24-.16l-1.89-4.38a.07.07,0,0,0-.12,0l-1.38,1.59a.53.53,0,0,0,0,.12v2.64a.21.21,0,0,1-.21.21h-1.59A.2.2,0,0,1,195.85,57.53Z"/><path class="cls-2" d="M204.85,57.53V45.87a.2.2,0,0,1,.21-.21h1.59a.2.2,0,0,1,.21.21V57.53a.21.21,0,0,1-.21.21h-1.59A.21.21,0,0,1,204.85,57.53Z"/><path class="cls-2" d="M208.68,61V59.72a.2.2,0,0,1,.21-.2h0c1.33,0,1.83-.3,2.23-1.73a.17.17,0,0,0,0-.1l-2.85-8.55c0-.15,0-.24.15-.24h1.69a.26.26,0,0,1,.25.17l1.72,6.08c0,.07.09.07.11,0l1.72-6.08a.25.25,0,0,1,.24-.17h1.64c.14,0,.21.09.16.24l-3,9.08c-.79,2.28-1.4,3-4,3h-.12C208.74,61.17,208.68,61.09,208.68,61Z"/><path class="cls-3" d="M54.48,74.6a3.45,3.45,0,0,1-3.76,3.55H48a.09.09,0,0,0-.09.09v4.64a.2.2,0,0,1-.21.21H46.08a.21.21,0,0,1-.21-.21V71.2a.21.21,0,0,1,.21-.21h4.74A3.44,3.44,0,0,1,54.48,74.6Zm-2,.05a1.83,1.83,0,0,0-1.95-1.93H48a.08.08,0,0,0-.09.08v3.65a.08.08,0,0,0,.09.08h2.57A1.81,1.81,0,0,0,52.48,74.65Z"/><path class="cls-3" d="M61.12,74.39a.22.22,0,0,1,.11.26l-.3,1.55c0,.14-.1.18-.24.12a2,2,0,0,0-.95-.06A1.69,1.69,0,0,0,58.05,78v4.88a.2.2,0,0,1-.2.21H56.26a.21.21,0,0,1-.21-.21v-8.4a.21.21,0,0,1,.21-.21h1.59a.2.2,0,0,1,.2.21v.77c0,.09.05.11.09,0a2.29,2.29,0,0,1,2-1.12A1.91,1.91,0,0,1,61.12,74.39Z"/><path class="cls-3" d="M69.86,79.19a.19.19,0,0,1-.21.21h-5.4a.08.08,0,0,0-.09.08,2.72,2.72,0,0,0,.16.78,1.91,1.91,0,0,0,2,1.26,2.17,2.17,0,0,0,1.87-1c.09-.12.19-.14.29,0l1.07.88a.18.18,0,0,1,0,.28,4.05,4.05,0,0,1-3.46,1.58A3.63,3.63,0,0,1,62.56,81a5.82,5.82,0,0,1-.4-2.33,5.47,5.47,0,0,1,.21-1.88A3.56,3.56,0,0,1,66,74.13c2.44,0,3.57,1.38,3.83,3.56A9.09,9.09,0,0,1,69.86,79.19Zm-5.54-2.12a2.39,2.39,0,0,0-.14.76s0,.08.07.08h3.5a.08.08,0,0,0,.09-.08,2.65,2.65,0,0,0-.11-.66A1.68,1.68,0,0,0,66,75.86,1.59,1.59,0,0,0,64.32,77.07Z"/><path class="cls-3" d="M73.48,82.92,70.7,74.49a.17.17,0,0,1,.17-.24h1.76a.26.26,0,0,1,.25.18l1.67,5.76c0,.07.09.07.1,0l1.68-5.76a.24.24,0,0,1,.24-.18l1.76,0c.14,0,.22.08.17.24l-2.76,8.39a.22.22,0,0,1-.22.17H73.7A.22.22,0,0,1,73.48,82.92Z"/><path class="cls-3" d="M87,79.19a.19.19,0,0,1-.2.21h-5.4c-.06,0-.09,0-.09.08a2.76,2.76,0,0,0,.15.78,1.93,1.93,0,0,0,2,1.26,2.18,2.18,0,0,0,1.87-1,.18.18,0,0,1,.29,0l1.07.88a.19.19,0,0,1,0,.28,4.06,4.06,0,0,1-3.47,1.58A3.64,3.64,0,0,1,79.74,81a6,6,0,0,1-.39-2.33,5.75,5.75,0,0,1,.2-1.88,3.58,3.58,0,0,1,3.61-2.61c2.43,0,3.57,1.38,3.83,3.56A8.14,8.14,0,0,1,87,79.19ZM81.5,77.07a2.41,2.41,0,0,0-.13.76s0,.08.07.08h3.5a.08.08,0,0,0,.09-.08,3.22,3.22,0,0,0-.11-.66,1.69,1.69,0,0,0-1.76-1.31A1.61,1.61,0,0,0,81.5,77.07Z"/><path class="cls-3" d="M96.19,77.22v5.66a.21.21,0,0,1-.21.21H94.4a.2.2,0,0,1-.21-.21V77.64a1.65,1.65,0,1,0-3.3,0v5.26a.2.2,0,0,1-.2.21H89.1a.21.21,0,0,1-.21-.21v-8.4a.21.21,0,0,1,.21-.21h1.59a.2.2,0,0,1,.2.21V75c0,.07,0,.1.09,0a2.53,2.53,0,0,1,2.14-.94A2.87,2.87,0,0,1,96.19,77.22Z"/><path class="cls-3" d="M102.75,75.89H101a.09.09,0,0,0-.09.09v4.16c0,.88.38,1.24,1.19,1.24h.52a.21.21,0,0,1,.21.21v1.29a.22.22,0,0,1-.21.23h-.9c-1.65,0-2.71-.39-2.72-2.22V76a.09.09,0,0,0-.09-.09h-1a.19.19,0,0,1-.21-.2V74.48a.2.2,0,0,1,.21-.21h1a.08.08,0,0,0,.09-.09v-2a.19.19,0,0,1,.2-.21h1.5a.2.2,0,0,1,.21.21v2a.08.08,0,0,0,.09.09h1.76a.21.21,0,0,1,.21.21v1.21A.2.2,0,0,1,102.75,75.89Z"/><path class="cls-2" d="M115.67,79.19a.19.19,0,0,1-.2.21h-5.41a.07.07,0,0,0-.08.08,2.76,2.76,0,0,0,.15.78,1.93,1.93,0,0,0,2,1.26,2.18,2.18,0,0,0,1.87-1,.18.18,0,0,1,.29,0l1.07.88a.19.19,0,0,1,.05.28A4.06,4.06,0,0,1,112,83.24,3.64,3.64,0,0,1,108.37,81a6,6,0,0,1-.39-2.33,5.75,5.75,0,0,1,.2-1.88,3.58,3.58,0,0,1,3.61-2.61c2.43,0,3.57,1.38,3.83,3.56A8.14,8.14,0,0,1,115.67,79.19Zm-5.54-2.12a2.41,2.41,0,0,0-.13.76s0,.08.06.08h3.51a.07.07,0,0,0,.08-.08,2.7,2.7,0,0,0-.1-.66,1.69,1.69,0,0,0-1.76-1.31A1.61,1.61,0,0,0,110.13,77.07Z"/><path class="cls-2" d="M122.59,74.39a.23.23,0,0,1,.11.26l-.3,1.55c0,.14-.1.18-.24.12a2,2,0,0,0-1-.06A1.69,1.69,0,0,0,119.52,78v4.88a.21.21,0,0,1-.21.21h-1.58a.21.21,0,0,1-.21-.21v-8.4a.21.21,0,0,1,.21-.21h1.58a.21.21,0,0,1,.21.21v.77c0,.09,0,.11.09,0a2.29,2.29,0,0,1,2-1.12A1.91,1.91,0,0,1,122.59,74.39Z"/><path class="cls-2" d="M129.08,74.39a.22.22,0,0,1,.1.26l-.29,1.55q0,.21-.24.12a2,2,0,0,0-1-.06A1.69,1.69,0,0,0,126,78v4.88a.21.21,0,0,1-.21.21h-1.59a.2.2,0,0,1-.2-.21v-8.4a.2.2,0,0,1,.2-.21h1.59a.21.21,0,0,1,.21.21v.77c0,.09,0,.11.09,0a2.28,2.28,0,0,1,2-1.12A1.94,1.94,0,0,1,129.08,74.39Z"/><path class="cls-2" d="M130.36,80.62a6.68,6.68,0,0,1-.3-2,6.81,6.81,0,0,1,.28-2,3.7,3.7,0,0,1,3.74-2.56,3.63,3.63,0,0,1,3.63,2.54,5.82,5.82,0,0,1,.31,2,6.35,6.35,0,0,1-.29,2,3.66,3.66,0,0,1-3.66,2.63A3.7,3.7,0,0,1,130.36,80.62Zm5.47-.5a5.35,5.35,0,0,0,.17-1.45,4.92,4.92,0,0,0-.17-1.45,1.85,1.85,0,0,0-3.57,0,5.24,5.24,0,0,0-.18,1.45,5.4,5.4,0,0,0,.18,1.45,1.84,1.84,0,0,0,3.57,0Z"/><path class="cls-2" d="M145,74.39a.22.22,0,0,1,.1.26l-.29,1.55q0,.21-.24.12a2,2,0,0,0-.95-.06A1.69,1.69,0,0,0,141.92,78v4.88a.21.21,0,0,1-.21.21h-1.58a.2.2,0,0,1-.21-.21v-8.4a.2.2,0,0,1,.21-.21h1.58a.21.21,0,0,1,.21.21v.77c0,.09.05.11.09,0a2.28,2.28,0,0,1,2-1.12A1.94,1.94,0,0,1,145,74.39Z"/><path class="cls-2" d="M146,80.74v-.15a.2.2,0,0,1,.2-.21h1.52a.21.21,0,0,1,.21.21v0c0,.57.69,1.07,1.67,1.07s1.56-.43,1.56-1-1-.84-2.16-1.22c-1.38-.42-2.92-1-2.92-2.66s1.42-2.64,3.46-2.64,3.5,1.08,3.5,2.62a.21.21,0,0,1-.21.21h-1.47a.2.2,0,0,1-.2-.21c0-.57-.61-1.05-1.64-1.05-.88,0-1.52.33-1.52,1s1,.88,2.14,1.21c1.41.41,3,.94,3,2.67s-1.42,2.62-3.54,2.62S146,82.14,146,80.74Z"/><path class="cls-2" d="M165.27,77.07v5.81a.21.21,0,0,1-.21.21h-1.59a.2.2,0,0,1-.2-.21v-.55c0-.07-.06-.09-.11,0a3.19,3.19,0,0,1-2.45.93c-1.6,0-3-.8-3-2.61s1.3-2.85,3.59-2.85h1.85a.08.08,0,0,0,.09-.08v-.42c0-.88-.52-1.41-1.59-1.41-.88,0-1.43.33-1.57.88a.21.21,0,0,1-.24.17l-1.68-.21c-.12,0-.2-.08-.19-.17.17-1.38,1.61-2.4,3.63-2.4C163.84,74.13,165.27,75.38,165.27,77.07Zm-2,3v-.81a.08.08,0,0,0-.09-.08h-1.45c-1.19,0-2,.46-2,1.32s.62,1.16,1.45,1.16C162.3,81.64,163.27,81,163.27,80.05Z"/><path class="cls-2" d="M167.3,80.71a6.5,6.5,0,0,1-.27-2.07,6.31,6.31,0,0,1,.27-2A3.63,3.63,0,0,1,171,74.13a3.7,3.7,0,0,1,3.67,2.37,3.28,3.28,0,0,1,.12.55.2.2,0,0,1-.19.24l-1.55.23a.2.2,0,0,1-.24-.18.36.36,0,0,0,0-.14,1.27,1.27,0,0,0-.07-.24,1.73,1.73,0,0,0-1.72-1.1,1.69,1.69,0,0,0-1.73,1.26,5.65,5.65,0,0,0-.17,1.53,6.65,6.65,0,0,0,.15,1.54,1.83,1.83,0,0,0,3.49.07.18.18,0,0,0,0-.09.07.07,0,0,0,0,0c0-.14.12-.19.24-.17l1.56.24a.21.21,0,0,1,.19.24,3,3,0,0,1-.09.4,3.63,3.63,0,0,1-3.67,2.4A3.67,3.67,0,0,1,167.3,80.71Z"/><path class="cls-2" d="M180.9,75.89h-1.76a.08.08,0,0,0-.08.09v4.16c0,.88.38,1.24,1.19,1.24h.51a.21.21,0,0,1,.21.21v1.29a.22.22,0,0,1-.21.23h-.89c-1.66,0-2.71-.39-2.73-2.22V76a.08.08,0,0,0-.09-.09h-1a.2.2,0,0,1-.21-.2V74.48a.21.21,0,0,1,.21-.21h1a.08.08,0,0,0,.09-.09v-2a.2.2,0,0,1,.21-.21h1.5a.2.2,0,0,1,.21.21v2c0,.06,0,.09.08.09h1.76a.21.21,0,0,1,.21.21v1.21A.2.2,0,0,1,180.9,75.89Z"/><path class="cls-2" d="M182.8,71.84A1.23,1.23,0,1,1,184,73.06,1.18,1.18,0,0,1,182.8,71.84Zm.19,11V74.46a.21.21,0,0,1,.21-.21h1.59a.2.2,0,0,1,.2.21v8.42a.2.2,0,0,1-.2.21H183.2A.21.21,0,0,1,183,82.88Z"/><path class="cls-2" d="M189.44,82.92l-2.77-8.43c-.06-.15,0-.24.17-.24h1.76a.24.24,0,0,1,.24.18l1.67,5.76c0,.07.09.07.11,0l1.67-5.76a.25.25,0,0,1,.24-.18l1.76,0c.14,0,.23.08.18.24l-2.76,8.39a.24.24,0,0,1-.23.17h-1.81A.24.24,0,0,1,189.44,82.92Z"/><path class="cls-2" d="M203,79.19a.19.19,0,0,1-.21.21h-5.4a.08.08,0,0,0-.09.08,2.72,2.72,0,0,0,.16.78,1.92,1.92,0,0,0,2,1.26,2.16,2.16,0,0,0,1.86-1c.09-.12.19-.14.29,0l1.07.88c.11.09.13.17.06.28a4.08,4.08,0,0,1-3.47,1.58A3.63,3.63,0,0,1,195.71,81a5.82,5.82,0,0,1-.4-2.33,5.73,5.73,0,0,1,.21-1.88,3.56,3.56,0,0,1,3.61-2.61c2.43,0,3.57,1.38,3.83,3.56A8.14,8.14,0,0,1,203,79.19Zm-5.54-2.12a2.39,2.39,0,0,0-.14.76s0,.08.07.08h3.5a.08.08,0,0,0,.09-.08,3.3,3.3,0,0,0-.1-.66,1.69,1.69,0,0,0-1.76-1.31A1.6,1.6,0,0,0,197.47,77.07Z"/><path class="cls-2" d="M204.85,82.88V71.22a.21.21,0,0,1,.21-.21h1.59a.21.21,0,0,1,.21.21V82.88a.21.21,0,0,1-.21.21h-1.59A.21.21,0,0,1,204.85,82.88Z"/><path class="cls-2" d="M208.68,86.32V85.07a.2.2,0,0,1,.21-.2h0c1.33,0,1.83-.3,2.23-1.73a.17.17,0,0,0,0-.1l-2.85-8.55c0-.15,0-.24.15-.24h1.69a.26.26,0,0,1,.25.18l1.72,6.07c0,.07.09.07.11,0l1.72-6.07a.25.25,0,0,1,.24-.18h1.64c.14,0,.21.09.16.24l-3,9.08c-.79,2.28-1.4,3-4,3h-.12C208.74,86.52,208.68,86.44,208.68,86.32Z"/><path class="cls-3" d="M0,108.24V96.57a.21.21,0,0,1,.21-.21H1.79a.2.2,0,0,1,.21.21v11.67a.19.19,0,0,1-.21.2H.21A.2.2,0,0,1,0,108.24Z"/><path class="cls-3" d="M16.6,102.52v5.72a.19.19,0,0,1-.21.2H14.82a.19.19,0,0,1-.2-.2v-5.3a1.55,1.55,0,0,0-1.56-1.73,1.57,1.57,0,0,0-1.6,1.71v5.32a.2.2,0,0,1-.21.2H9.68a.2.2,0,0,1-.21-.2v-5.3a1.55,1.55,0,0,0-1.57-1.73,1.51,1.51,0,0,0-1.57,1.42v5.61a.19.19,0,0,1-.2.2H4.54a.2.2,0,0,1-.21-.2V99.83a.21.21,0,0,1,.21-.21H6.13a.2.2,0,0,1,.2.21v.57c0,.07.06.1.11,0a2.7,2.7,0,0,1,2.19-.94,2.64,2.64,0,0,1,2.47,1.34s.07,0,.12,0a2.76,2.76,0,0,1,2.55-1.34A2.7,2.7,0,0,1,16.6,102.52Z"/><path class="cls-3" d="M26.42,104.06a6.84,6.84,0,0,1-.29,2.1,3.29,3.29,0,0,1-3.33,2.42,2.46,2.46,0,0,1-2-.88s-.1,0-.1,0v3.75a.2.2,0,0,1-.21.2H18.93a.2.2,0,0,1-.21-.2V99.83a.21.21,0,0,1,.21-.21h1.59a.21.21,0,0,1,.21.21v.52c0,.07.05.1.1,0a2.5,2.5,0,0,1,2-.89,3.29,3.29,0,0,1,3.3,2.41A6.63,6.63,0,0,1,26.42,104.06Zm-2,0a4,4,0,0,0-.41-2,1.6,1.6,0,0,0-1.47-.85,1.46,1.46,0,0,0-1.34.83,4.06,4.06,0,0,0-.4,2,4.11,4.11,0,0,0,.43,2.08,1.43,1.43,0,0,0,1.3.75,1.55,1.55,0,0,0,1.38-.72A3.91,3.91,0,0,0,24.38,104Z"/><path class="cls-3" d="M33.43,99.74a.23.23,0,0,1,.1.26l-.29,1.56c0,.13-.11.17-.24.12a2,2,0,0,0-1-.07,1.69,1.69,0,0,0-1.69,1.74v4.89a.2.2,0,0,1-.21.2H28.56a.2.2,0,0,1-.21-.2V99.83a.21.21,0,0,1,.21-.21h1.59a.21.21,0,0,1,.21.21v.78c0,.08.05.1.08,0a2.31,2.31,0,0,1,2-1.12A2,2,0,0,1,33.43,99.74Z"/><path class="cls-3" d="M34.7,106a7,7,0,0,1-.29-2,6.5,6.5,0,0,1,.28-2,3.68,3.68,0,0,1,3.74-2.55A3.61,3.61,0,0,1,42.05,102a5.81,5.81,0,0,1,.32,2,6.36,6.36,0,0,1-.3,2,3.65,3.65,0,0,1-3.66,2.62A3.69,3.69,0,0,1,34.7,106Zm5.47-.5a5.27,5.27,0,0,0,.18-1.45,4.93,4.93,0,0,0-.18-1.45,1.76,1.76,0,0,0-1.79-1.36,1.81,1.81,0,0,0-1.78,1.36,5.76,5.76,0,0,0-.17,1.45,5.89,5.89,0,0,0,.17,1.45,1.84,1.84,0,0,0,3.57,0Z"/><path class="cls-3" d="M46,108.27l-2.78-8.42c-.05-.16,0-.24.17-.24h1.76a.26.26,0,0,1,.25.17l1.67,5.76c0,.07.09.07.1,0l1.68-5.76a.24.24,0,0,1,.24-.17l1.76,0a.16.16,0,0,1,.17.24l-2.76,8.39a.22.22,0,0,1-.22.17H46.21A.22.22,0,0,1,46,108.27Z"/><path class="cls-3" d="M59.55,104.54a.19.19,0,0,1-.2.21H54a.08.08,0,0,0-.09.09,2.75,2.75,0,0,0,.15.77,1.93,1.93,0,0,0,2,1.26,2.2,2.2,0,0,0,1.87-1,.18.18,0,0,1,.29-.06l1.07.88a.19.19,0,0,1,.05.28,4.06,4.06,0,0,1-3.47,1.59,3.66,3.66,0,0,1-3.59-2.3,6,6,0,0,1-.39-2.33,5.78,5.78,0,0,1,.2-1.88,3.57,3.57,0,0,1,3.61-2.6c2.43,0,3.57,1.38,3.83,3.55A8.14,8.14,0,0,1,59.55,104.54ZM54,102.42a2.46,2.46,0,0,0-.13.76s0,.08.07.08h3.5a.08.08,0,0,0,.09-.08,3.22,3.22,0,0,0-.11-.66,1.69,1.69,0,0,0-1.76-1.31A1.62,1.62,0,0,0,54,102.42Z"/><path class="cls-2" d="M70.53,99.62h1.59a.2.2,0,0,1,.2.21V111.5a.19.19,0,0,1-.2.2H70.53a.2.2,0,0,1-.21-.2v-3.75c0-.07,0-.08-.1,0a2.5,2.5,0,0,1-2,.86,3.29,3.29,0,0,1-3.35-2.42,6.55,6.55,0,0,1-.29-2.1,6.91,6.91,0,0,1,.31-2.16,3.29,3.29,0,0,1,3.29-2.41,2.51,2.51,0,0,1,2,.89c0,.07.1,0,.1,0v-.52A.21.21,0,0,1,70.53,99.62ZM70.3,104a4.31,4.31,0,0,0-.39-2,1.52,1.52,0,0,0-1.37-.83,1.59,1.59,0,0,0-1.46.85,4.22,4.22,0,0,0-.42,2,3.82,3.82,0,0,0,.52,2.11,1.57,1.57,0,0,0,1.38.72,1.45,1.45,0,0,0,1.31-.75A4,4,0,0,0,70.3,104Z"/><path class="cls-2" d="M80,99.62h1.57a.2.2,0,0,1,.2.21v8.41a.19.19,0,0,1-.2.2H80a.2.2,0,0,1-.21-.2v-.56c0-.07,0-.1-.1,0a2.5,2.5,0,0,1-2.13.91,2.84,2.84,0,0,1-3.09-2.91V99.83a.21.21,0,0,1,.21-.21h1.59a.21.21,0,0,1,.21.21v5.25a1.56,1.56,0,0,0,1.6,1.77,1.63,1.63,0,0,0,1.71-1.77V99.83A.21.21,0,0,1,80,99.62Z"/><path class="cls-2" d="M90.91,102.42v5.82a.2.2,0,0,1-.21.2H89.12a.19.19,0,0,1-.21-.2v-.56c0-.07,0-.08-.11,0a3.19,3.19,0,0,1-2.45.93c-1.6,0-3-.79-3-2.61s1.29-2.84,3.58-2.84h1.85a.09.09,0,0,0,.09-.09v-.41c0-.88-.52-1.42-1.59-1.42-.88,0-1.43.33-1.57.88a.21.21,0,0,1-.24.17l-1.68-.2c-.12,0-.2-.09-.19-.18.18-1.38,1.61-2.39,3.63-2.39C89.48,99.49,90.91,100.73,90.91,102.42Zm-2,3v-.82a.08.08,0,0,0-.09-.08H87.37c-1.19,0-2,.46-2,1.33S86,107,86.85,107C87.94,107,88.91,106.35,88.91,105.41Z"/><path class="cls-2" d="M92.91,108.24V96.57a.21.21,0,0,1,.21-.21h1.59a.2.2,0,0,1,.2.21v11.67a.19.19,0,0,1-.2.2H93.12A.2.2,0,0,1,92.91,108.24Z"/><path class="cls-2" d="M97,97.19a1.23,1.23,0,1,1,1.22,1.23A1.18,1.18,0,0,1,97,97.19Zm.19,11V99.81a.19.19,0,0,1,.21-.2h1.58a.2.2,0,0,1,.21.2v8.43a.2.2,0,0,1-.21.2H97.35A.19.19,0,0,1,97.14,108.24Z"/><path class="cls-2" d="M105.91,101.25h-1.77a.07.07,0,0,0-.08.08v4.16c0,.88.38,1.24,1.19,1.24h.52a.2.2,0,0,1,.2.21v1.3a.2.2,0,0,1-.2.22l-.9,0c-1.66,0-2.71-.4-2.73-2.23v-4.92a.07.07,0,0,0-.08-.08h-1a.2.2,0,0,1-.2-.21V99.83a.2.2,0,0,1,.2-.21h1a.07.07,0,0,0,.08-.08v-2a.21.21,0,0,1,.21-.21h1.5a.21.21,0,0,1,.21.21v2a.07.07,0,0,0,.08.08h1.77a.2.2,0,0,1,.2.21V101A.2.2,0,0,1,105.91,101.25Z"/><path class="cls-2" d="M107.6,111.67v-1.24a.2.2,0,0,1,.2-.21h0c1.33,0,1.83-.29,2.23-1.73a.17.17,0,0,0,0-.1l-2.85-8.54c0-.16,0-.24.15-.24h1.7a.25.25,0,0,1,.24.17l1.72,6.07c0,.07.09.07.11,0l1.72-6.07a.25.25,0,0,1,.24-.17h1.64c.14,0,.21.08.16.24l-3,9.08c-.79,2.27-1.4,2.95-4,2.95h-.12C107.65,111.88,107.6,111.79,107.6,111.67Z"/><path class="cls-2" d="M119.81,106.06a6.5,6.5,0,0,1-.27-2.07,6.31,6.31,0,0,1,.27-2,3.63,3.63,0,0,1,3.65-2.46,3.69,3.69,0,0,1,3.67,2.36,3.28,3.28,0,0,1,.12.55.2.2,0,0,1-.19.24l-1.55.23a.2.2,0,0,1-.24-.17.32.32,0,0,0,0-.14,1.68,1.68,0,0,0-.07-.24,1.73,1.73,0,0,0-1.72-1.11,1.69,1.69,0,0,0-1.73,1.26,5.68,5.68,0,0,0-.17,1.54,6.62,6.62,0,0,0,.15,1.53,1.83,1.83,0,0,0,3.49.07.28.28,0,0,0,0-.08.07.07,0,0,0,0-.06c0-.13.12-.19.24-.17l1.56.24a.22.22,0,0,1,.19.24,2.72,2.72,0,0,1-.09.4,3.62,3.62,0,0,1-3.67,2.4A3.66,3.66,0,0,1,119.81,106.06Z"/><path class="cls-2" d="M128.89,106a7,7,0,0,1-.29-2,6.85,6.85,0,0,1,.27-2,3.7,3.7,0,0,1,3.75-2.55,3.61,3.61,0,0,1,3.62,2.53,5.82,5.82,0,0,1,.31,2,6.37,6.37,0,0,1-.29,2,3.65,3.65,0,0,1-3.66,2.62A3.69,3.69,0,0,1,128.89,106Zm5.47-.5a5.3,5.3,0,0,0,.17-1.45,5,5,0,0,0-.17-1.45,1.78,1.78,0,0,0-1.79-1.36,1.8,1.8,0,0,0-1.78,1.36,5.76,5.76,0,0,0-.17,1.45,5.89,5.89,0,0,0,.17,1.45,1.84,1.84,0,0,0,3.57,0Z"/><path class="cls-2" d="M145.75,102.57v5.67a.19.19,0,0,1-.21.2H144a.19.19,0,0,1-.21-.2V103a1.65,1.65,0,1,0-3.3,0v5.27a.19.19,0,0,1-.2.2h-1.59a.2.2,0,0,1-.21-.2V99.83a.21.21,0,0,1,.21-.21h1.59a.2.2,0,0,1,.2.21v.55c0,.07.05.11.09,0a2.52,2.52,0,0,1,2.14-.93A2.86,2.86,0,0,1,145.75,102.57Z"/><path class="cls-2" d="M152.31,101.25h-1.76a.08.08,0,0,0-.09.08v4.16c0,.88.38,1.24,1.19,1.24h.52a.21.21,0,0,1,.21.21v1.3a.21.21,0,0,1-.21.22l-.9,0c-1.65,0-2.71-.4-2.72-2.23v-4.92a.08.08,0,0,0-.09-.08h-1a.21.21,0,0,1-.21-.21V99.83a.21.21,0,0,1,.21-.21h1a.08.08,0,0,0,.09-.08v-2a.2.2,0,0,1,.2-.21h1.5a.2.2,0,0,1,.21.21v2a.08.08,0,0,0,.09.08h1.76a.21.21,0,0,1,.21.21V101A.21.21,0,0,1,152.31,101.25Z"/><path class="cls-2" d="M154.21,97.19a1.23,1.23,0,1,1,2.45,0,1.23,1.23,0,1,1-2.45,0Zm.19,11V99.81a.19.19,0,0,1,.2-.2h1.59a.2.2,0,0,1,.21.2v8.43a.2.2,0,0,1-.21.2H154.6A.19.19,0,0,1,154.4,108.24Z"/><path class="cls-2" d="M166,102.57v5.67a.19.19,0,0,1-.2.2H164.2a.2.2,0,0,1-.21-.2V103a1.65,1.65,0,1,0-3.29,0v5.27a.2.2,0,0,1-.21.2H158.9a.2.2,0,0,1-.21-.2V99.83a.21.21,0,0,1,.21-.21h1.59a.21.21,0,0,1,.21.21v.55c0,.07.05.11.08,0a2.53,2.53,0,0,1,2.14-.93A2.86,2.86,0,0,1,166,102.57Z"/><path class="cls-2" d="M173.5,99.62h1.57a.21.21,0,0,1,.21.21v8.41a.2.2,0,0,1-.21.2H173.5a.2.2,0,0,1-.21-.2v-.56c0-.07,0-.1-.1,0a2.49,2.49,0,0,1-2.12.91,2.84,2.84,0,0,1-3.09-2.91V99.83a.2.2,0,0,1,.2-.21h1.59a.21.21,0,0,1,.21.21v5.25a1.56,1.56,0,0,0,1.6,1.77,1.63,1.63,0,0,0,1.71-1.77V99.83A.21.21,0,0,1,173.5,99.62Z"/><path class="cls-2" d="M177.45,106a7,7,0,0,1-.29-2,6.85,6.85,0,0,1,.27-2,3.7,3.7,0,0,1,3.75-2.55A3.61,3.61,0,0,1,184.8,102a5.82,5.82,0,0,1,.31,2,6.37,6.37,0,0,1-.29,2,3.65,3.65,0,0,1-3.66,2.62A3.69,3.69,0,0,1,177.45,106Zm5.47-.5a5.3,5.3,0,0,0,.17-1.45,5,5,0,0,0-.17-1.45,1.78,1.78,0,0,0-1.79-1.36,1.8,1.8,0,0,0-1.78,1.36,5.76,5.76,0,0,0-.17,1.45,5.89,5.89,0,0,0,.17,1.45,1.84,1.84,0,0,0,3.57,0Z"/><path class="cls-2" d="M192.43,99.62H194a.21.21,0,0,1,.21.21v8.41a.2.2,0,0,1-.21.2h-1.57a.2.2,0,0,1-.21-.2v-.56c0-.07-.05-.1-.1,0a2.49,2.49,0,0,1-2.12.91,2.84,2.84,0,0,1-3.09-2.91V99.83a.2.2,0,0,1,.21-.21h1.58a.21.21,0,0,1,.21.21v5.25a1.56,1.56,0,0,0,1.6,1.77,1.63,1.63,0,0,0,1.71-1.77V99.83A.21.21,0,0,1,192.43,99.62Z"/><path class="cls-2" d="M196,106.1v-.16a.21.21,0,0,1,.21-.21h1.52a.2.2,0,0,1,.2.21v0c0,.57.7,1.07,1.68,1.07s1.55-.43,1.55-1c0-.72-1-.84-2.16-1.22-1.38-.42-2.91-1-2.91-2.66s1.41-2.64,3.45-2.64,3.5,1.09,3.5,2.62a.2.2,0,0,1-.2.21h-1.47a.21.21,0,0,1-.21-.21c0-.57-.6-1-1.64-1-.88,0-1.52.33-1.52,1s1,.88,2.14,1.21c1.42.41,3,1,3,2.67s-1.41,2.63-3.53,2.63S196,107.49,196,106.1Z"/><path class="cls-2" d="M204.86,108.24V96.57a.2.2,0,0,1,.2-.21h1.59a.21.21,0,0,1,.21.21v11.67a.2.2,0,0,1-.21.2h-1.59A.19.19,0,0,1,204.86,108.24Z"/><path class="cls-2" d="M208.69,111.67v-1.24a.2.2,0,0,1,.2-.21h0c1.33,0,1.83-.29,2.23-1.73a.17.17,0,0,0,0-.1l-2.85-8.54c0-.16,0-.24.15-.24h1.7a.25.25,0,0,1,.24.17l1.72,6.07c0,.07.09.07.11,0l1.72-6.07a.25.25,0,0,1,.24-.17h1.64c.14,0,.21.08.16.24l-3,9.08c-.79,2.27-1.4,2.95-4,2.95h-.12C208.74,111.88,208.69,111.79,208.69,111.67Z"/></g></g></svg>